<mxfile host="app.diagrams.net" modified="2022-12-28T22:57:54.303Z" agent="5.0 (Windows NT 10.0; Win64; x64) AppleWebKit/537.36 (KHTML, like Gecko) Chrome/107.0.0.0 Safari/537.36 OPR/93.0.0.0 (Edition Yx GX)" version="20.7.4" etag="gLuhQpZJ3SQZUGcdQZkB" type="github">
  <diagram id="cgFW2OtOUTC42Nse7i8g" name="Страница 1">
    <mxGraphModel dx="1393" dy="789" grid="1" gridSize="10" guides="1" tooltips="1" connect="1" arrows="1" fold="1" page="1" pageScale="1" pageWidth="827" pageHeight="1169" math="0" shadow="0">
      <root>
        <mxCell id="0" />
        <mxCell id="1" parent="0" />
        <mxCell id="Ner-J-GfMfvuW6puchZL-1" value="" style="ellipse;html=1;shape=startState;fillColor=#000000;strokeColor=#ff0000;" vertex="1" parent="1">
          <mxGeometry x="384" y="40" width="30" height="30" as="geometry" />
        </mxCell>
        <mxCell id="Ner-J-GfMfvuW6puchZL-2" value="" style="edgeStyle=orthogonalEdgeStyle;html=1;verticalAlign=bottom;endArrow=open;endSize=8;strokeColor=#ff0000;rounded=0;entryX=0.5;entryY=0;entryDx=0;entryDy=0;" edge="1" source="Ner-J-GfMfvuW6puchZL-1" parent="1" target="Ner-J-GfMfvuW6puchZL-4">
          <mxGeometry relative="1" as="geometry">
            <mxPoint x="399" y="130" as="targetPoint" />
          </mxGeometry>
        </mxCell>
        <mxCell id="Ner-J-GfMfvuW6puchZL-5" style="edgeStyle=orthogonalEdgeStyle;rounded=0;orthogonalLoop=1;jettySize=auto;html=1;exitX=1;exitY=0.5;exitDx=0;exitDy=0;" edge="1" parent="1" source="Ner-J-GfMfvuW6puchZL-4" target="Ner-J-GfMfvuW6puchZL-7">
          <mxGeometry relative="1" as="geometry">
            <mxPoint x="640" y="280" as="targetPoint" />
          </mxGeometry>
        </mxCell>
        <mxCell id="Ner-J-GfMfvuW6puchZL-6" value="Авторизован" style="edgeLabel;html=1;align=center;verticalAlign=middle;resizable=0;points=[];" vertex="1" connectable="0" parent="Ner-J-GfMfvuW6puchZL-5">
          <mxGeometry x="-0.6705" y="2" relative="1" as="geometry">
            <mxPoint as="offset" />
          </mxGeometry>
        </mxCell>
        <mxCell id="Ner-J-GfMfvuW6puchZL-12" style="edgeStyle=orthogonalEdgeStyle;rounded=0;orthogonalLoop=1;jettySize=auto;html=1;exitX=0;exitY=0.5;exitDx=0;exitDy=0;entryX=0.25;entryY=0;entryDx=0;entryDy=0;" edge="1" parent="1" source="Ner-J-GfMfvuW6puchZL-4" target="Ner-J-GfMfvuW6puchZL-11">
          <mxGeometry relative="1" as="geometry" />
        </mxCell>
        <mxCell id="Ner-J-GfMfvuW6puchZL-13" value="Не авторизован" style="edgeLabel;html=1;align=center;verticalAlign=middle;resizable=0;points=[];" vertex="1" connectable="0" parent="Ner-J-GfMfvuW6puchZL-12">
          <mxGeometry x="-0.1141" y="-1" relative="1" as="geometry">
            <mxPoint x="35" as="offset" />
          </mxGeometry>
        </mxCell>
        <mxCell id="Ner-J-GfMfvuW6puchZL-4" value="Проверка авторизации" style="rhombus;whiteSpace=wrap;html=1;" vertex="1" parent="1">
          <mxGeometry x="338.5" y="120" width="121" height="80" as="geometry" />
        </mxCell>
        <mxCell id="Ner-J-GfMfvuW6puchZL-9" style="edgeStyle=orthogonalEdgeStyle;rounded=0;orthogonalLoop=1;jettySize=auto;html=1;exitX=0.5;exitY=1;exitDx=0;exitDy=0;entryX=0.5;entryY=0;entryDx=0;entryDy=0;" edge="1" parent="1" source="Ner-J-GfMfvuW6puchZL-7" target="Ner-J-GfMfvuW6puchZL-8">
          <mxGeometry relative="1" as="geometry" />
        </mxCell>
        <mxCell id="Ner-J-GfMfvuW6puchZL-7" value="Redirect in profile" style="rounded=1;whiteSpace=wrap;html=1;" vertex="1" parent="1">
          <mxGeometry x="580" y="250" width="120" height="60" as="geometry" />
        </mxCell>
        <mxCell id="Ner-J-GfMfvuW6puchZL-8" value="" style="ellipse;html=1;shape=endState;fillColor=#000000;strokeColor=#ff0000;" vertex="1" parent="1">
          <mxGeometry x="625" y="360" width="30" height="30" as="geometry" />
        </mxCell>
        <mxCell id="Ner-J-GfMfvuW6puchZL-11" value="&lt;p style=&quot;margin:0px;margin-top:4px;text-align:center;&quot;&gt;&lt;br&gt;&lt;b&gt;Sign in&lt;/b&gt;&lt;/p&gt;" style="verticalAlign=top;align=left;overflow=fill;fontSize=12;fontFamily=Helvetica;html=1;" vertex="1" parent="1">
          <mxGeometry x="120" y="240" width="440" height="610" as="geometry" />
        </mxCell>
        <mxCell id="Ner-J-GfMfvuW6puchZL-14" value="" style="ellipse;html=1;shape=startState;fillColor=#000000;strokeColor=#ff0000;" vertex="1" parent="1">
          <mxGeometry x="195" y="300" width="30" height="30" as="geometry" />
        </mxCell>
        <mxCell id="Ner-J-GfMfvuW6puchZL-15" value="" style="edgeStyle=orthogonalEdgeStyle;html=1;verticalAlign=bottom;endArrow=open;endSize=8;strokeColor=#ff0000;rounded=0;entryX=0.5;entryY=0;entryDx=0;entryDy=0;" edge="1" source="Ner-J-GfMfvuW6puchZL-14" parent="1" target="Ner-J-GfMfvuW6puchZL-17">
          <mxGeometry relative="1" as="geometry">
            <mxPoint x="185" y="390" as="targetPoint" />
          </mxGeometry>
        </mxCell>
        <mxCell id="Ner-J-GfMfvuW6puchZL-19" style="edgeStyle=orthogonalEdgeStyle;rounded=0;orthogonalLoop=1;jettySize=auto;html=1;exitX=1;exitY=0.5;exitDx=0;exitDy=0;entryX=0;entryY=0.5;entryDx=0;entryDy=0;" edge="1" parent="1" source="Ner-J-GfMfvuW6puchZL-17" target="Ner-J-GfMfvuW6puchZL-18">
          <mxGeometry relative="1" as="geometry" />
        </mxCell>
        <mxCell id="Ner-J-GfMfvuW6puchZL-17" value="Login&lt;br&gt;Password" style="rounded=1;whiteSpace=wrap;html=1;" vertex="1" parent="1">
          <mxGeometry x="150" y="390" width="120" height="60" as="geometry" />
        </mxCell>
        <mxCell id="Ner-J-GfMfvuW6puchZL-21" style="edgeStyle=orthogonalEdgeStyle;rounded=0;orthogonalLoop=1;jettySize=auto;html=1;exitX=0.5;exitY=1;exitDx=0;exitDy=0;entryX=0.5;entryY=0;entryDx=0;entryDy=0;" edge="1" parent="1" source="Ner-J-GfMfvuW6puchZL-18" target="Ner-J-GfMfvuW6puchZL-20">
          <mxGeometry relative="1" as="geometry" />
        </mxCell>
        <mxCell id="Ner-J-GfMfvuW6puchZL-18" value="SELECT * FROM user &lt;br&gt;WHERE login = login AND password = md5(password)" style="shape=dataStorage;whiteSpace=wrap;html=1;fixedSize=1;" vertex="1" parent="1">
          <mxGeometry x="310" y="380" width="180" height="80" as="geometry" />
        </mxCell>
        <mxCell id="Ner-J-GfMfvuW6puchZL-24" style="edgeStyle=orthogonalEdgeStyle;rounded=0;orthogonalLoop=1;jettySize=auto;html=1;exitX=1;exitY=0.5;exitDx=0;exitDy=0;entryX=0;entryY=0.5;entryDx=0;entryDy=0;" edge="1" parent="1" source="Ner-J-GfMfvuW6puchZL-20" target="Ner-J-GfMfvuW6puchZL-23">
          <mxGeometry relative="1" as="geometry" />
        </mxCell>
        <mxCell id="Ner-J-GfMfvuW6puchZL-25" value="False" style="edgeLabel;html=1;align=center;verticalAlign=middle;resizable=0;points=[];" vertex="1" connectable="0" parent="Ner-J-GfMfvuW6puchZL-24">
          <mxGeometry x="-0.6471" relative="1" as="geometry">
            <mxPoint as="offset" />
          </mxGeometry>
        </mxCell>
        <mxCell id="Ner-J-GfMfvuW6puchZL-29" style="edgeStyle=orthogonalEdgeStyle;rounded=0;orthogonalLoop=1;jettySize=auto;html=1;exitX=0;exitY=0.5;exitDx=0;exitDy=0;entryX=0.5;entryY=0;entryDx=0;entryDy=0;" edge="1" parent="1" source="Ner-J-GfMfvuW6puchZL-20" target="Ner-J-GfMfvuW6puchZL-28">
          <mxGeometry relative="1" as="geometry">
            <Array as="points">
              <mxPoint x="230" y="565" />
            </Array>
          </mxGeometry>
        </mxCell>
        <mxCell id="Ner-J-GfMfvuW6puchZL-30" value="True" style="edgeLabel;html=1;align=center;verticalAlign=middle;resizable=0;points=[];" vertex="1" connectable="0" parent="Ner-J-GfMfvuW6puchZL-29">
          <mxGeometry x="-0.088" y="1" relative="1" as="geometry">
            <mxPoint as="offset" />
          </mxGeometry>
        </mxCell>
        <mxCell id="Ner-J-GfMfvuW6puchZL-20" value="Верны ли введённые данные" style="rhombus;whiteSpace=wrap;html=1;" vertex="1" parent="1">
          <mxGeometry x="270" y="510" width="140" height="110" as="geometry" />
        </mxCell>
        <mxCell id="Ner-J-GfMfvuW6puchZL-27" style="edgeStyle=orthogonalEdgeStyle;rounded=0;orthogonalLoop=1;jettySize=auto;html=1;exitX=0.5;exitY=1;exitDx=0;exitDy=0;entryX=0.5;entryY=0;entryDx=0;entryDy=0;" edge="1" parent="1" source="Ner-J-GfMfvuW6puchZL-23" target="Ner-J-GfMfvuW6puchZL-26">
          <mxGeometry relative="1" as="geometry" />
        </mxCell>
        <mxCell id="Ner-J-GfMfvuW6puchZL-23" value="Redirect in sign in" style="rounded=1;whiteSpace=wrap;html=1;" vertex="1" parent="1">
          <mxGeometry x="580" y="535" width="120" height="60" as="geometry" />
        </mxCell>
        <mxCell id="Ner-J-GfMfvuW6puchZL-26" value="" style="ellipse;html=1;shape=endState;fillColor=#000000;strokeColor=#ff0000;" vertex="1" parent="1">
          <mxGeometry x="625" y="640" width="30" height="30" as="geometry" />
        </mxCell>
        <mxCell id="Ner-J-GfMfvuW6puchZL-33" style="edgeStyle=orthogonalEdgeStyle;rounded=0;orthogonalLoop=1;jettySize=auto;html=1;exitX=1;exitY=0.5;exitDx=0;exitDy=0;entryX=0;entryY=0.5;entryDx=0;entryDy=0;" edge="1" parent="1" source="Ner-J-GfMfvuW6puchZL-28" target="Ner-J-GfMfvuW6puchZL-32">
          <mxGeometry relative="1" as="geometry" />
        </mxCell>
        <mxCell id="Ner-J-GfMfvuW6puchZL-28" value="&lt;p style=&quot;margin:0px;margin-top:4px;text-align:center;&quot;&gt;&lt;b&gt;Create cookie&lt;/b&gt;&lt;/p&gt;&lt;hr size=&quot;1&quot;&gt;&lt;p style=&quot;margin:0px;margin-left:4px;&quot;&gt;+ user_token: token&lt;/p&gt;&lt;hr size=&quot;1&quot;&gt;&lt;p style=&quot;margin:0px;margin-left:4px;&quot;&gt;+ user_id: id&lt;/p&gt;&lt;p style=&quot;margin:0px;margin-left:4px;&quot;&gt;&lt;br&gt;&lt;/p&gt;&lt;p style=&quot;margin:0px;margin-left:4px;&quot;&gt;+ user_login: login&lt;/p&gt;" style="verticalAlign=top;align=left;overflow=fill;fontSize=12;fontFamily=Helvetica;html=1;" vertex="1" parent="1">
          <mxGeometry x="150" y="650" width="160" height="110" as="geometry" />
        </mxCell>
        <mxCell id="Ner-J-GfMfvuW6puchZL-31" value="" style="ellipse;html=1;shape=endState;fillColor=#000000;strokeColor=#ff0000;" vertex="1" parent="1">
          <mxGeometry x="425" y="790" width="30" height="30" as="geometry" />
        </mxCell>
        <mxCell id="Ner-J-GfMfvuW6puchZL-34" style="edgeStyle=orthogonalEdgeStyle;rounded=0;orthogonalLoop=1;jettySize=auto;html=1;exitX=0.5;exitY=1;exitDx=0;exitDy=0;entryX=0.5;entryY=0;entryDx=0;entryDy=0;" edge="1" parent="1" source="Ner-J-GfMfvuW6puchZL-32" target="Ner-J-GfMfvuW6puchZL-31">
          <mxGeometry relative="1" as="geometry" />
        </mxCell>
        <mxCell id="Ner-J-GfMfvuW6puchZL-32" value="Redirect in profile" style="rounded=1;whiteSpace=wrap;html=1;" vertex="1" parent="1">
          <mxGeometry x="380" y="675" width="120" height="60" as="geometry" />
        </mxCell>
      </root>
    </mxGraphModel>
  </diagram>
</mxfile>
